<svg fill="#5800FF" width="800px" height="800px" viewBox="0 0 256 256" id="Flat" xmlns="http://www.w3.org/2000/svg" stroke="#5800FF" stroke-width="14.847999999999999">

<g id="SVGRepo_bgCarrier" stroke-width="0"/>

<g id="SVGRepo_tracerCarrier" stroke-linecap="round" stroke-linejoin="round"/>

<g id="SVGRepo_iconCarrier"> <path d="M220,128.00037a4.0002,4.0002,0,0,1-4,4H40a4,4,0,0,1,0-8H216A4.0002,4.0002,0,0,1,220,128.00037Zm-180-60H216a4,4,0,0,0,0-8H40a4,4,0,1,0,0,8Zm176,120H40a4,4,0,0,0,0,8H216a4,4,0,0,0,0-8Z"/> </g>

</svg>